<mxfile host="app.diagrams.net" modified="2023-09-23T11:37:14.653Z" agent="Mozilla/5.0 (Macintosh; Intel Mac OS X 10_15_7) AppleWebKit/537.36 (KHTML, like Gecko) Chrome/116.0.0.0 Safari/537.36" etag="woG2UNI8OWL_XHmWU6f2" version="21.8.0" type="device">
  <diagram name="Page-1" id="CNg-xxv8uBgQ6iehUhwk">
    <mxGraphModel dx="1328" dy="651" grid="0" gridSize="10" guides="1" tooltips="1" connect="1" arrows="1" fold="1" page="1" pageScale="1" pageWidth="1100" pageHeight="850" math="0" shadow="0">
      <root>
        <mxCell id="0" />
        <mxCell id="1" parent="0" />
        <mxCell id="PS8qf4idX6_4qgXIORE2-27" value="" style="rounded=0;whiteSpace=wrap;html=1;strokeWidth=4;dashed=1;fontFamily=Comic Sans MS;" parent="1" vertex="1">
          <mxGeometry x="670" y="150" width="240" height="430" as="geometry" />
        </mxCell>
        <mxCell id="PS8qf4idX6_4qgXIORE2-28" value="&lt;font style=&quot;font-size: 18px;&quot;&gt;Client&lt;/font&gt;" style="rounded=0;whiteSpace=wrap;html=1;strokeColor=default;strokeWidth=2;fontFamily=Comic Sans MS;fontStyle=1" parent="1" vertex="1">
          <mxGeometry x="178" y="253" width="80" height="80" as="geometry" />
        </mxCell>
        <mxCell id="PS8qf4idX6_4qgXIORE2-29" value="&lt;span style=&quot;font-size: 18px;&quot;&gt;ETCD&lt;/span&gt;" style="shape=cylinder3;whiteSpace=wrap;html=1;boundedLbl=1;backgroundOutline=1;size=15;strokeWidth=2;fontFamily=Comic Sans MS;" parent="1" vertex="1">
          <mxGeometry x="434" y="518" width="72" height="65" as="geometry" />
        </mxCell>
        <mxCell id="PS8qf4idX6_4qgXIORE2-30" value="&lt;font style=&quot;font-size: 16px;&quot;&gt;&lt;font style=&quot;font-size: 16px;&quot;&gt;Pod&lt;br style=&quot;font-size: 16px;&quot;&gt;#01&lt;/font&gt;&lt;br style=&quot;font-size: 16px;&quot;&gt;&lt;/font&gt;" style="rounded=0;whiteSpace=wrap;html=1;strokeColor=default;strokeWidth=2;fontFamily=Comic Sans MS;fontSize=16;" parent="1" vertex="1">
          <mxGeometry x="690" y="170" width="80" height="100" as="geometry" />
        </mxCell>
        <mxCell id="PS8qf4idX6_4qgXIORE2-31" value="&lt;font style=&quot;font-size: 16px;&quot;&gt;&lt;font style=&quot;font-size: 16px;&quot;&gt;Pod&lt;br style=&quot;font-size: 16px;&quot;&gt;#02&lt;/font&gt;&lt;br style=&quot;font-size: 16px;&quot;&gt;&lt;/font&gt;" style="rounded=0;whiteSpace=wrap;html=1;strokeColor=default;strokeWidth=2;fontFamily=Comic Sans MS;fontSize=16;" parent="1" vertex="1">
          <mxGeometry x="690" y="305" width="80" height="100" as="geometry" />
        </mxCell>
        <mxCell id="PS8qf4idX6_4qgXIORE2-32" value="&lt;font style=&quot;font-size: 14px;&quot;&gt;172.16.0.18&lt;/font&gt;" style="text;html=1;strokeColor=none;fillColor=none;align=center;verticalAlign=middle;whiteSpace=wrap;rounded=0;fontFamily=Comic Sans MS;" parent="1" vertex="1">
          <mxGeometry x="680" y="270" width="100" height="30" as="geometry" />
        </mxCell>
        <mxCell id="PS8qf4idX6_4qgXIORE2-33" value="&lt;font style=&quot;font-size: 14px;&quot;&gt;172.16.0.42&lt;/font&gt;" style="text;html=1;strokeColor=none;fillColor=none;align=center;verticalAlign=middle;whiteSpace=wrap;rounded=0;fontFamily=Comic Sans MS;" parent="1" vertex="1">
          <mxGeometry x="680" y="405" width="100" height="30" as="geometry" />
        </mxCell>
        <mxCell id="PS8qf4idX6_4qgXIORE2-34" value="&lt;font style=&quot;font-size: 16px;&quot;&gt;&lt;font style=&quot;font-size: 16px;&quot;&gt;Pod&lt;br style=&quot;font-size: 16px;&quot;&gt;#03&lt;/font&gt;&lt;br style=&quot;font-size: 16px;&quot;&gt;&lt;/font&gt;" style="rounded=0;whiteSpace=wrap;html=1;strokeColor=default;strokeWidth=2;fontFamily=Comic Sans MS;fontSize=16;" parent="1" vertex="1">
          <mxGeometry x="690" y="440" width="80" height="100" as="geometry" />
        </mxCell>
        <mxCell id="PS8qf4idX6_4qgXIORE2-35" value="&lt;font style=&quot;font-size: 14px;&quot;&gt;172.16.0.37&lt;/font&gt;" style="text;html=1;strokeColor=none;fillColor=none;align=center;verticalAlign=middle;whiteSpace=wrap;rounded=0;fontFamily=Comic Sans MS;" parent="1" vertex="1">
          <mxGeometry x="680" y="540" width="100" height="30" as="geometry" />
        </mxCell>
        <mxCell id="PS8qf4idX6_4qgXIORE2-36" value="&lt;font style=&quot;font-size: 16px;&quot;&gt;&lt;font style=&quot;font-size: 16px;&quot;&gt;Pod&lt;br style=&quot;font-size: 16px;&quot;&gt;#04&lt;/font&gt;&lt;br style=&quot;font-size: 16px;&quot;&gt;&lt;/font&gt;" style="rounded=0;whiteSpace=wrap;html=1;strokeColor=default;strokeWidth=2;fontFamily=Comic Sans MS;fontSize=16;" parent="1" vertex="1">
          <mxGeometry x="810" y="220" width="80" height="100" as="geometry" />
        </mxCell>
        <mxCell id="PS8qf4idX6_4qgXIORE2-37" value="&lt;font style=&quot;font-size: 14px;&quot;&gt;172.16.0.78&lt;/font&gt;" style="text;html=1;strokeColor=none;fillColor=none;align=center;verticalAlign=middle;whiteSpace=wrap;rounded=0;fontFamily=Comic Sans MS;" parent="1" vertex="1">
          <mxGeometry x="800" y="320" width="100" height="30" as="geometry" />
        </mxCell>
        <mxCell id="PS8qf4idX6_4qgXIORE2-38" value="&lt;font style=&quot;font-size: 16px;&quot;&gt;&lt;font style=&quot;font-size: 16px;&quot;&gt;Pod&lt;br style=&quot;font-size: 16px;&quot;&gt;#32&lt;/font&gt;&lt;br style=&quot;font-size: 16px;&quot;&gt;&lt;/font&gt;" style="rounded=0;whiteSpace=wrap;html=1;strokeColor=default;strokeWidth=2;fontFamily=Comic Sans MS;fontSize=16;" parent="1" vertex="1">
          <mxGeometry x="810" y="400" width="80" height="100" as="geometry" />
        </mxCell>
        <mxCell id="PS8qf4idX6_4qgXIORE2-39" value="&lt;font style=&quot;font-size: 14px;&quot;&gt;172.16.0.12&lt;/font&gt;" style="text;html=1;strokeColor=none;fillColor=none;align=center;verticalAlign=middle;whiteSpace=wrap;rounded=0;fontFamily=Comic Sans MS;" parent="1" vertex="1">
          <mxGeometry x="800" y="500" width="100" height="30" as="geometry" />
        </mxCell>
        <mxCell id="PS8qf4idX6_4qgXIORE2-40" value="&lt;font style=&quot;font-size: 36px;&quot;&gt;...&lt;/font&gt;" style="text;html=1;strokeColor=none;fillColor=none;align=center;verticalAlign=middle;whiteSpace=wrap;rounded=0;fontFamily=Comic Sans MS;horizontal=1;" parent="1" vertex="1">
          <mxGeometry x="800" y="347" width="100" height="16" as="geometry" />
        </mxCell>
        <mxCell id="PS8qf4idX6_4qgXIORE2-47" value="" style="curved=1;endArrow=classic;html=1;rounded=0;strokeWidth=3;strokeColor=#007FFF;fontFamily=Comic Sans MS;fontColor=#007FFF;" parent="1" edge="1">
          <mxGeometry width="50" height="50" relative="1" as="geometry">
            <mxPoint x="268" y="322" as="sourcePoint" />
            <mxPoint x="420" y="450" as="targetPoint" />
            <Array as="points">
              <mxPoint x="320" y="410" />
            </Array>
          </mxGeometry>
        </mxCell>
        <mxCell id="PS8qf4idX6_4qgXIORE2-48" value="&lt;font color=&quot;#007fff&quot; style=&quot;font-size: 17px;&quot;&gt;1. GET&quot;Kubar&quot; endpoints.&lt;/font&gt;" style="text;html=1;strokeColor=none;fillColor=none;align=left;verticalAlign=middle;whiteSpace=wrap;rounded=0;fontFamily=Comic Sans MS;fontSize=17;" parent="1" vertex="1">
          <mxGeometry x="220" y="410" width="130" height="30" as="geometry" />
        </mxCell>
        <mxCell id="PS8qf4idX6_4qgXIORE2-50" value="" style="endArrow=classic;html=1;rounded=0;strokeColor=#009999;strokeWidth=3;fontFamily=Comic Sans MS;entryX=0;entryY=0.5;entryDx=0;entryDy=0;" parent="1" target="PS8qf4idX6_4qgXIORE2-30" edge="1">
          <mxGeometry width="50" height="50" relative="1" as="geometry">
            <mxPoint x="270" y="269" as="sourcePoint" />
            <mxPoint x="680" y="210" as="targetPoint" />
          </mxGeometry>
        </mxCell>
        <mxCell id="PS8qf4idX6_4qgXIORE2-51" value="&lt;font color=&quot;#007fff&quot; style=&quot;font-size: 17px;&quot;&gt;2. Reach a &lt;br&gt;pod directly&lt;/font&gt;" style="text;html=1;strokeColor=none;fillColor=none;align=left;verticalAlign=middle;whiteSpace=wrap;rounded=0;fontFamily=Comic Sans MS;fontSize=17;" parent="1" vertex="1">
          <mxGeometry x="364" y="198" width="155" height="30" as="geometry" />
        </mxCell>
        <mxCell id="PS8qf4idX6_4qgXIORE2-52" value="&lt;font style=&quot;font-size: 33px;&quot;&gt;Kubar service&lt;/font&gt;" style="text;html=1;strokeColor=none;fillColor=none;align=center;verticalAlign=middle;whiteSpace=wrap;rounded=0;fontStyle=0;fontSize=33;fontColor=#666666;fontFamily=Comic Sans MS;" parent="1" vertex="1">
          <mxGeometry x="671.5" y="98" width="237" height="30" as="geometry" />
        </mxCell>
        <mxCell id="XkPWoaXol0ZG1fB9WCVg-1" value="&lt;font style=&quot;font-size: 18px;&quot;&gt;Control plane / API Server&lt;/font&gt;" style="rounded=0;whiteSpace=wrap;html=1;strokeColor=default;strokeWidth=2;fontFamily=Comic Sans MS;fontStyle=0" parent="1" vertex="1">
          <mxGeometry x="430" y="390" width="80" height="101" as="geometry" />
        </mxCell>
        <mxCell id="XkPWoaXol0ZG1fB9WCVg-2" value="" style="curved=1;endArrow=classic;html=1;rounded=0;strokeWidth=3;strokeColor=#007FFF;fontFamily=Comic Sans MS;startArrow=classic;startFill=1;" parent="1" edge="1">
          <mxGeometry width="50" height="50" relative="1" as="geometry">
            <mxPoint x="520" y="460" as="sourcePoint" />
            <mxPoint x="660" y="400" as="targetPoint" />
            <Array as="points">
              <mxPoint x="600" y="450" />
            </Array>
          </mxGeometry>
        </mxCell>
        <mxCell id="XkPWoaXol0ZG1fB9WCVg-3" value="" style="endArrow=classic;html=1;rounded=0;strokeWidth=3;strokeColor=#007FFF;fontFamily=Comic Sans MS;startArrow=classic;startFill=1;" parent="1" edge="1">
          <mxGeometry width="50" height="50" relative="1" as="geometry">
            <mxPoint x="470" y="497" as="sourcePoint" />
            <mxPoint x="470" y="537" as="targetPoint" />
          </mxGeometry>
        </mxCell>
        <mxCell id="XkPWoaXol0ZG1fB9WCVg-5" value="&lt;font color=&quot;#007fff&quot; style=&quot;font-size: 17px;&quot;&gt;Keep set of &lt;br&gt;pod in sync&lt;/font&gt;" style="text;html=1;strokeColor=none;fillColor=none;align=left;verticalAlign=middle;whiteSpace=wrap;rounded=0;fontFamily=Comic Sans MS;fontSize=17;" parent="1" vertex="1">
          <mxGeometry x="550" y="470" width="111.5" height="30" as="geometry" />
        </mxCell>
        <mxCell id="XkPWoaXol0ZG1fB9WCVg-7" value="Client is a Kubernetes API-aware." style="text;html=1;strokeColor=none;fillColor=none;align=left;verticalAlign=middle;whiteSpace=wrap;rounded=0;fontSize=23;fontFamily=Comic Sans MS;fontStyle=0;fontColor=#666666;" parent="1" vertex="1">
          <mxGeometry x="100" y="143" width="251" height="30" as="geometry" />
        </mxCell>
      </root>
    </mxGraphModel>
  </diagram>
</mxfile>
